<svg width="48" height="48" viewBox="0 0 48 48" fill="none" xmlns="http://www.w3.org/2000/svg">
<g filter="url(#filter0_f_834_14)">
<rect x="4" y="4" width="40" height="40" fill="#0E2438" fill-opacity="0.5"/>
<rect x="4.5" y="4.5" width="39" height="39" stroke="white"/>
</g>
<rect x="4.97559" y="4.97565" width="39.0244" height="39.0244" rx="5" fill="url(#paint0_linear_834_14)"/>
<path d="M15.7073 4.97565H9.97559C7.21416 4.97565 4.97559 7.21422 4.97559 9.97564V15.7074M33.0244 4.97565H39C41.7614 4.97565 44 7.21422 44 9.97565V15.7074M44 32.0488V39C44 41.7615 41.7614 44 39 44H33.0244M15.7073 44H9.97558C7.21416 44 4.97559 41.7615 4.97559 39V32.0488" stroke="white" stroke-width="2"/>
<path d="M34.9919 26.6829C34.9919 28.1557 36.1858 29.3496 37.6586 29.3496C39.1314 29.3496 40.3253 28.1557 40.3253 26.6829C40.3253 25.2102 39.1314 24.0162 37.6586 24.0162C36.1858 24.0162 34.9919 25.2102 34.9919 26.6829ZM19.8537 21.8049L20.3139 21.6093L19.7725 20.3355L19.3748 21.6612L19.8537 21.8049ZM24.0001 31.561L23.5399 31.7565L24.1352 33.1572L24.4866 31.6764L24.0001 31.561ZM18.3903 26.6829V27.1829H18.7623L18.8692 26.8266L18.3903 26.6829ZM27.4147 17.1707L27.8926 17.0237L27.3523 15.2679L26.9282 17.0553L27.4147 17.1707ZM30.3415 26.6829L29.8636 26.83L29.9722 27.1829H30.3415V26.6829ZM19.3936 22.0004L23.5399 31.7565L24.4602 31.3654L20.3139 21.6093L19.3936 22.0004ZM11.3171 27.1829H18.3903V26.1829H11.3171V27.1829ZM18.8692 26.8266L20.3326 21.9485L19.3748 21.6612L17.9114 26.5392L18.8692 26.8266ZM24.4866 31.6764L27.9012 17.2862L26.9282 17.0553L23.5136 31.4455L24.4866 31.6764ZM26.9368 17.3178L29.8636 26.83L30.8194 26.5359L27.8926 17.0237L26.9368 17.3178ZM30.3415 27.1829H37.6586V26.1829H30.3415V27.1829Z" fill="white"/>
<defs>
<filter id="filter0_f_834_14" x="0" y="0" width="48" height="48" filterUnits="userSpaceOnUse" color-interpolation-filters="sRGB">
<feFlood flood-opacity="0" result="BackgroundImageFix"/>
<feBlend mode="normal" in="SourceGraphic" in2="BackgroundImageFix" result="shape"/>
<feGaussianBlur stdDeviation="2" result="effect1_foregroundBlur_834_14"/>
</filter>
<linearGradient id="paint0_linear_834_14" x1="39.1219" y1="44" x2="7.41461" y2="7.17077" gradientUnits="userSpaceOnUse">
<stop stop-color="#1A3E5C"/>
<stop offset="1" stop-color="#007BCC"/>
</linearGradient>
</defs>
</svg>
