<svg xmlns="http://www.w3.org/2000/svg" width="607" height="124" viewBox="0 0 607 124" fill="none"><rect width="138" height="124" fill="#122B3F" fill-opacity="0.02"></rect><path d="M69.7656 10.875V45H67.8672V10.875H69.7656Z" fill="white"></path><line x1="29" y1="57.6" x2="109" y2="57.6" stroke="white" stroke-width="0.8"></line><path d="M14.9062 78.3281L2.76562 111H0.75L13.5703 76.875H15.1406L14.9062 78.3281ZM26.3906 111L14.2734 78.3281L14.0391 76.875H15.5859L28.4297 111H26.3906ZM23.3906 99.3047V101.062H5.88281V99.3047H23.3906ZM49.8984 106.078V75H51.75V111H49.9688L49.8984 106.078ZM31.9453 98.5547V98.0625C31.9453 96.0781 32.1641 94.2969 32.6016 92.7188C33.0391 91.125 33.6719 89.7734 34.5 88.6641C35.3281 87.5391 36.3359 86.6797 37.5234 86.0859C38.7266 85.4766 40.0859 85.1719 41.6016 85.1719C43.0234 85.1719 44.2891 85.3984 45.3984 85.8516C46.5078 86.2891 47.4688 86.9219 48.2812 87.75C49.0938 88.5625 49.7578 89.5234 50.2734 90.6328C50.8047 91.7266 51.1953 92.9375 51.4453 94.2656V103.008C51.2578 104.18 50.9062 105.281 50.3906 106.312C49.8906 107.328 49.2266 108.227 48.3984 109.008C47.5859 109.773 46.6094 110.375 45.4688 110.812C44.3281 111.25 43.0234 111.469 41.5547 111.469C40.0547 111.469 38.7109 111.156 37.5234 110.531C36.3359 109.906 35.3281 109.023 34.5 107.883C33.6719 106.742 33.0391 105.383 32.6016 103.805C32.1641 102.227 31.9453 100.477 31.9453 98.5547ZM33.8438 98.0625V98.5547C33.8438 100.164 34 101.648 34.3125 103.008C34.6406 104.367 35.125 105.547 35.7656 106.547C36.4219 107.547 37.2422 108.328 38.2266 108.891C39.2266 109.453 40.3984 109.734 41.7422 109.734C43.4609 109.734 44.9141 109.422 46.1016 108.797C47.2891 108.172 48.2344 107.344 48.9375 106.312C49.6562 105.281 50.1562 104.141 50.4375 102.891V94.6172C50.2656 93.8203 49.9922 92.9766 49.6172 92.0859C49.2578 91.1797 48.75 90.3359 48.0938 89.5547C47.4531 88.7734 46.6172 88.1406 45.5859 87.6562C44.5547 87.1562 43.2891 86.9062 41.7891 86.9062C40.4297 86.9062 39.25 87.1875 38.25 87.75C37.2656 88.3125 36.4453 89.0938 35.7891 90.0938C35.1328 91.0938 34.6406 92.2734 34.3125 93.6328C34 94.9922 33.8438 96.4688 33.8438 98.0625ZM66.8672 109.031L75.7266 85.6406H77.6953L67.9688 111H66.4453L66.8672 109.031ZM58.5703 85.6406L67.4766 109.078L67.875 111H66.3281L56.6016 85.6406H58.5703ZM84.7266 85.6406V111H82.8516V85.6406H84.7266ZM82.2656 77.9531C82.2656 77.5312 82.4062 77.1719 82.6875 76.875C82.9844 76.5625 83.3594 76.4062 83.8125 76.4062C84.25 76.4062 84.6172 76.5625 84.9141 76.875C85.2109 77.1719 85.3594 77.5312 85.3594 77.9531C85.3594 78.375 85.2109 78.7344 84.9141 79.0312C84.6172 79.3125 84.25 79.4531 83.8125 79.4531C83.3594 79.4531 82.9844 79.3125 82.6875 79.0312C82.4062 78.7344 82.2656 78.375 82.2656 77.9531ZM108.281 104.695C108.281 103.945 108.078 103.203 107.672 102.469C107.281 101.734 106.555 101.047 105.492 100.406C104.445 99.7656 102.922 99.2266 100.922 98.7891C99.5 98.4766 98.2422 98.1328 97.1484 97.7578C96.0703 97.3828 95.1641 96.9297 94.4297 96.3984C93.6953 95.8516 93.1406 95.2031 92.7656 94.4531C92.4062 93.7031 92.2266 92.8047 92.2266 91.7578C92.2266 90.8516 92.4219 90 92.8125 89.2031C93.2031 88.4062 93.7734 87.7109 94.5234 87.1172C95.2891 86.5078 96.2031 86.0312 97.2656 85.6875C98.3281 85.3438 99.5312 85.1719 100.875 85.1719C102.797 85.1719 104.438 85.4922 105.797 86.1328C107.172 86.7578 108.227 87.625 108.961 88.7344C109.695 89.8281 110.062 91.1016 110.062 92.5547H108.188C108.188 91.5703 107.906 90.6484 107.344 89.7891C106.781 88.9297 105.953 88.2344 104.859 87.7031C103.781 87.1562 102.453 86.8828 100.875 86.8828C99.2812 86.8828 97.9844 87.125 96.9844 87.6094C95.9844 88.0938 95.25 88.7109 94.7812 89.4609C94.3281 90.1953 94.1016 90.9453 94.1016 91.7109C94.1016 92.3203 94.1875 92.8906 94.3594 93.4219C94.5469 93.9375 94.8984 94.4141 95.4141 94.8516C95.9297 95.2891 96.6719 95.7109 97.6406 96.1172C98.6094 96.5078 99.8672 96.875 101.414 97.2188C103.445 97.6719 105.102 98.2266 106.383 98.8828C107.664 99.5234 108.609 100.312 109.219 101.25C109.828 102.172 110.133 103.305 110.133 104.648C110.133 105.648 109.922 106.57 109.5 107.414C109.078 108.242 108.469 108.961 107.672 109.57C106.891 110.18 105.938 110.648 104.812 110.977C103.688 111.305 102.438 111.469 101.062 111.469C98.9844 111.469 97.2188 111.141 95.7656 110.484C94.3281 109.812 93.2344 108.93 92.4844 107.836C91.75 106.742 91.3828 105.562 91.3828 104.297H93.2578C93.3672 105.688 93.8203 106.781 94.6172 107.578C95.4297 108.375 96.4141 108.938 97.5703 109.266C98.7422 109.594 99.9062 109.758 101.062 109.758C102.641 109.758 103.961 109.516 105.023 109.031C106.102 108.531 106.914 107.898 107.461 107.133C108.008 106.352 108.281 105.539 108.281 104.695ZM126.258 111.469C124.664 111.469 123.188 111.164 121.828 110.555C120.469 109.93 119.281 109.062 118.266 107.953C117.25 106.828 116.453 105.5 115.875 103.969C115.312 102.438 115.031 100.758 115.031 98.9297V97.8984C115.031 96.0078 115.312 94.2891 115.875 92.7422C116.453 91.1797 117.234 89.8359 118.219 88.7109C119.203 87.5703 120.336 86.6953 121.617 86.0859C122.914 85.4766 124.297 85.1719 125.766 85.1719C127.25 85.1719 128.594 85.4453 129.797 85.9922C131 86.5391 132.031 87.3047 132.891 88.2891C133.75 89.2734 134.406 90.4453 134.859 91.8047C135.312 93.1641 135.539 94.6641 135.539 96.3047V97.875H116.203V96.1641H133.688V95.8594C133.672 94.2656 133.344 92.7891 132.703 91.4297C132.078 90.0703 131.18 88.9766 130.008 88.1484C128.836 87.3047 127.422 86.8828 125.766 86.8828C124.438 86.8828 123.227 87.1641 122.133 87.7266C121.055 88.2891 120.125 89.0703 119.344 90.0703C118.562 91.0547 117.961 92.2188 117.539 93.5625C117.117 94.8906 116.906 96.3359 116.906 97.8984V98.9297C116.906 100.43 117.141 101.836 117.609 103.148C118.078 104.461 118.734 105.617 119.578 106.617C120.422 107.602 121.414 108.375 122.555 108.938C123.695 109.5 124.945 109.781 126.305 109.781C127.773 109.781 129.117 109.523 130.336 109.008C131.555 108.492 132.664 107.586 133.664 106.289L134.883 107.203C134.32 108.016 133.641 108.742 132.844 109.383C132.047 110.023 131.102 110.531 130.008 110.906C128.93 111.281 127.68 111.469 126.258 111.469Z" fill="white"></path><rect width="126" height="124" transform="translate(258)" fill="#122B3F" fill-opacity="0.02"></rect><path d="M315.266 10.875V45H313.367V10.875H315.266ZM327.875 10.875V45H325.977V10.875H327.875Z" fill="white"></path><line x1="281" y1="57.6" x2="361" y2="57.6" stroke="white" stroke-width="0.8"></line><path d="M265.266 76.875V111H263.367V76.875H265.266ZM276.352 91.0547V111H274.5V85.6406H276.328L276.352 91.0547ZM276 96.375L275.086 95.2969C275.227 93.9531 275.555 92.6719 276.07 91.4531C276.602 90.2344 277.297 89.1562 278.156 88.2188C279.031 87.2812 280.047 86.5391 281.203 85.9922C282.375 85.4453 283.664 85.1719 285.07 85.1719C286.336 85.1719 287.469 85.3516 288.469 85.7109C289.469 86.0547 290.312 86.6016 291 87.3516C291.703 88.1016 292.234 89.0703 292.594 90.2578C292.953 91.4297 293.133 92.8594 293.133 94.5469V111H291.281V94.5469C291.281 92.5469 291.008 91 290.461 89.9062C289.914 88.7969 289.148 88.0156 288.164 87.5625C287.195 87.1094 286.062 86.8828 284.766 86.8828C283.266 86.8828 281.969 87.2188 280.875 87.8906C279.797 88.5469 278.906 89.3828 278.203 90.3984C277.5 91.3984 276.961 92.4375 276.586 93.5156C276.227 94.5938 276.031 95.5469 276 96.375ZM308.18 109.031L317.039 85.6406H319.008L309.281 111H307.758L308.18 109.031ZM299.883 85.6406L308.789 109.078L309.188 111H307.641L297.914 85.6406H299.883ZM332.93 111.469C331.336 111.469 329.859 111.164 328.5 110.555C327.141 109.93 325.953 109.062 324.938 107.953C323.922 106.828 323.125 105.5 322.547 103.969C321.984 102.438 321.703 100.758 321.703 98.9297V97.8984C321.703 96.0078 321.984 94.2891 322.547 92.7422C323.125 91.1797 323.906 89.8359 324.891 88.7109C325.875 87.5703 327.008 86.6953 328.289 86.0859C329.586 85.4766 330.969 85.1719 332.438 85.1719C333.922 85.1719 335.266 85.4453 336.469 85.9922C337.672 86.5391 338.703 87.3047 339.562 88.2891C340.422 89.2734 341.078 90.4453 341.531 91.8047C341.984 93.1641 342.211 94.6641 342.211 96.3047V97.875H322.875V96.1641H340.359V95.8594C340.344 94.2656 340.016 92.7891 339.375 91.4297C338.75 90.0703 337.852 88.9766 336.68 88.1484C335.508 87.3047 334.094 86.8828 332.438 86.8828C331.109 86.8828 329.898 87.1641 328.805 87.7266C327.727 88.2891 326.797 89.0703 326.016 90.0703C325.234 91.0547 324.633 92.2188 324.211 93.5625C323.789 94.8906 323.578 96.3359 323.578 97.8984V98.9297C323.578 100.43 323.812 101.836 324.281 103.148C324.75 104.461 325.406 105.617 326.25 106.617C327.094 107.602 328.086 108.375 329.227 108.938C330.367 109.5 331.617 109.781 332.977 109.781C334.445 109.781 335.789 109.523 337.008 109.008C338.227 108.492 339.336 107.586 340.336 106.289L341.555 107.203C340.992 108.016 340.312 108.742 339.516 109.383C338.719 110.023 337.773 110.531 336.68 110.906C335.602 111.281 334.352 111.469 332.93 111.469ZM363.469 104.695C363.469 103.945 363.266 103.203 362.859 102.469C362.469 101.734 361.742 101.047 360.68 100.406C359.633 99.7656 358.109 99.2266 356.109 98.7891C354.688 98.4766 353.43 98.1328 352.336 97.7578C351.258 97.3828 350.352 96.9297 349.617 96.3984C348.883 95.8516 348.328 95.2031 347.953 94.4531C347.594 93.7031 347.414 92.8047 347.414 91.7578C347.414 90.8516 347.609 90 348 89.2031C348.391 88.4062 348.961 87.7109 349.711 87.1172C350.477 86.5078 351.391 86.0312 352.453 85.6875C353.516 85.3438 354.719 85.1719 356.062 85.1719C357.984 85.1719 359.625 85.4922 360.984 86.1328C362.359 86.7578 363.414 87.625 364.148 88.7344C364.883 89.8281 365.25 91.1016 365.25 92.5547H363.375C363.375 91.5703 363.094 90.6484 362.531 89.7891C361.969 88.9297 361.141 88.2344 360.047 87.7031C358.969 87.1562 357.641 86.8828 356.062 86.8828C354.469 86.8828 353.172 87.125 352.172 87.6094C351.172 88.0938 350.438 88.7109 349.969 89.4609C349.516 90.1953 349.289 90.9453 349.289 91.7109C349.289 92.3203 349.375 92.8906 349.547 93.4219C349.734 93.9375 350.086 94.4141 350.602 94.8516C351.117 95.2891 351.859 95.7109 352.828 96.1172C353.797 96.5078 355.055 96.875 356.602 97.2188C358.633 97.6719 360.289 98.2266 361.57 98.8828C362.852 99.5234 363.797 100.312 364.406 101.25C365.016 102.172 365.32 103.305 365.32 104.648C365.32 105.648 365.109 106.57 364.688 107.414C364.266 108.242 363.656 108.961 362.859 109.57C362.078 110.18 361.125 110.648 360 110.977C358.875 111.305 357.625 111.469 356.25 111.469C354.172 111.469 352.406 111.141 350.953 110.484C349.516 109.812 348.422 108.93 347.672 107.836C346.938 106.742 346.57 105.562 346.57 104.297H348.445C348.555 105.688 349.008 106.781 349.805 107.578C350.617 108.375 351.602 108.938 352.758 109.266C353.93 109.594 355.094 109.758 356.25 109.758C357.828 109.758 359.148 109.516 360.211 109.031C361.289 108.531 362.102 107.898 362.648 107.133C363.195 106.352 363.469 105.539 363.469 104.695ZM381.047 85.6406V87.3281H368.906V85.6406H381.047ZM373.594 78.9375H375.469V104.883C375.469 106.242 375.633 107.273 375.961 107.977C376.305 108.664 376.75 109.133 377.297 109.383C377.859 109.617 378.461 109.734 379.102 109.734C379.555 109.734 379.969 109.711 380.344 109.664C380.734 109.617 381.125 109.562 381.516 109.5L381.68 111.141C381.336 111.25 380.891 111.328 380.344 111.375C379.797 111.438 379.312 111.469 378.891 111.469C377.828 111.469 376.898 111.273 376.102 110.883C375.305 110.492 374.688 109.82 374.25 108.867C373.812 107.898 373.594 106.57 373.594 104.883V78.9375Z" fill="white"></path><rect width="103" height="124" transform="translate(504)" fill="#122B3F" fill-opacity="0.02"></rect><rect width="103" height="124" transform="translate(504)" fill="#122B3F" fill-opacity="0.02"></rect><path d="M543.766 10.875V45H541.867V10.875H543.766ZM556.375 10.875V45H554.477V10.875H556.375ZM568.984 10.875V45H567.086V10.875H568.984Z" fill="white"></path><line x1="515.5" y1="57.6" x2="595.5" y2="57.6" stroke="white" stroke-width="0.8"></line><path d="M520.078 94.3125H509.859L509.812 92.6016H518.367C520.273 92.6016 521.883 92.3438 523.195 91.8281C524.508 91.3125 525.5 90.5391 526.172 89.5078C526.844 88.4609 527.18 87.1562 527.18 85.5938C527.18 84.0312 526.836 82.7344 526.148 81.7031C525.461 80.6719 524.43 79.8984 523.055 79.3828C521.695 78.8672 519.992 78.6094 517.945 78.6094H510.445V111H508.547V76.875H517.945C519.68 76.875 521.234 77.0469 522.609 77.3906C523.984 77.7344 525.148 78.2734 526.102 79.0078C527.07 79.7266 527.812 80.6406 528.328 81.75C528.844 82.8594 529.102 84.1719 529.102 85.6875C529.102 87.0938 528.82 88.3594 528.258 89.4844C527.695 90.6094 526.883 91.5312 525.82 92.25C524.773 92.9531 523.492 93.3828 521.977 93.5391L520.078 94.3125ZM519.844 111H509.461L510.281 109.266H519.844C521.672 109.266 523.234 108.961 524.531 108.352C525.844 107.727 526.852 106.844 527.555 105.703C528.273 104.547 528.633 103.164 528.633 101.555C528.633 100.258 528.32 99.0625 527.695 97.9688C527.07 96.8594 526.125 95.9766 524.859 95.3203C523.594 94.6484 522 94.3125 520.078 94.3125H514.359L514.406 92.6016H522.633L522.891 93.2109C524.375 93.3828 525.688 93.8594 526.828 94.6406C527.984 95.4219 528.891 96.4141 529.547 97.6172C530.203 98.8047 530.531 100.102 530.531 101.508C530.531 103.555 530.078 105.281 529.172 106.688C528.266 108.094 527.008 109.164 525.398 109.898C523.805 110.633 521.953 111 519.844 111ZM553.758 105.141V85.6406H555.633V111H553.781L553.758 105.141ZM554.086 100.828L555.305 100.781C555.305 102.328 555.109 103.75 554.719 105.047C554.344 106.344 553.75 107.477 552.938 108.445C552.141 109.398 551.109 110.141 549.844 110.672C548.578 111.203 547.062 111.469 545.297 111.469C544.062 111.469 542.93 111.297 541.898 110.953C540.883 110.594 540 110.031 539.25 109.266C538.516 108.5 537.945 107.5 537.539 106.266C537.148 105.031 536.953 103.539 536.953 101.789V85.6406H538.805V101.836C538.805 103.305 538.969 104.547 539.297 105.562C539.641 106.578 540.109 107.391 540.703 108C541.297 108.609 541.992 109.055 542.789 109.336C543.586 109.602 544.453 109.734 545.391 109.734C547.578 109.734 549.305 109.312 550.57 108.469C551.852 107.625 552.758 106.523 553.289 105.164C553.82 103.805 554.086 102.359 554.086 100.828ZM565.57 85.6406V111H563.695V85.6406H565.57ZM563.109 77.9531C563.109 77.5312 563.25 77.1719 563.531 76.875C563.828 76.5625 564.203 76.4062 564.656 76.4062C565.094 76.4062 565.461 76.5625 565.758 76.875C566.055 77.1719 566.203 77.5312 566.203 77.9531C566.203 78.375 566.055 78.7344 565.758 79.0312C565.461 79.3125 565.094 79.4531 564.656 79.4531C564.203 79.4531 563.828 79.3125 563.531 79.0312C563.25 78.7344 563.109 78.375 563.109 77.9531ZM575.836 75V111H573.961V75H575.836ZM600.727 106.078V75H602.578V111H600.797L600.727 106.078ZM582.773 98.5547V98.0625C582.773 96.0781 582.992 94.2969 583.43 92.7188C583.867 91.125 584.5 89.7734 585.328 88.6641C586.156 87.5391 587.164 86.6797 588.352 86.0859C589.555 85.4766 590.914 85.1719 592.43 85.1719C593.852 85.1719 595.117 85.3984 596.227 85.8516C597.336 86.2891 598.297 86.9219 599.109 87.75C599.922 88.5625 600.586 89.5234 601.102 90.6328C601.633 91.7266 602.023 92.9375 602.273 94.2656V103.008C602.086 104.18 601.734 105.281 601.219 106.312C600.719 107.328 600.055 108.227 599.227 109.008C598.414 109.773 597.438 110.375 596.297 110.812C595.156 111.25 593.852 111.469 592.383 111.469C590.883 111.469 589.539 111.156 588.352 110.531C587.164 109.906 586.156 109.023 585.328 107.883C584.5 106.742 583.867 105.383 583.43 103.805C582.992 102.227 582.773 100.477 582.773 98.5547ZM584.672 98.0625V98.5547C584.672 100.164 584.828 101.648 585.141 103.008C585.469 104.367 585.953 105.547 586.594 106.547C587.25 107.547 588.07 108.328 589.055 108.891C590.055 109.453 591.227 109.734 592.57 109.734C594.289 109.734 595.742 109.422 596.93 108.797C598.117 108.172 599.062 107.344 599.766 106.312C600.484 105.281 600.984 104.141 601.266 102.891V94.6172C601.094 93.8203 600.82 92.9766 600.445 92.0859C600.086 91.1797 599.578 90.3359 598.922 89.5547C598.281 88.7734 597.445 88.1406 596.414 87.6562C595.383 87.1562 594.117 86.9062 592.617 86.9062C591.258 86.9062 590.078 87.1875 589.078 87.75C588.094 88.3125 587.273 89.0938 586.617 90.0938C585.961 91.0938 585.469 92.2734 585.141 93.6328C584.828 94.9922 584.672 96.4688 584.672 98.0625Z" fill="white"></path></svg>