<svg xmlns="http://www.w3.org/2000/svg" width="149" height="64" viewBox="0 0 149 64" fill="none"><g clip-path="url(#clip0_1_2)"><path d="M31.166 11.6025L24.7606 18.0079V49.1755L31.1387 42.8482L31.166 11.6025Z" fill="white"></path><path d="M40.3178 16.8583L33.9124 23.2637V49.1475L40.2905 42.8202L40.3178 16.8583Z" fill="white"></path><path d="M15.6865 27.3816L22.0919 20.9762L22.0645 34.5681L15.6865 40.8954V27.3816Z" fill="white"></path><path fill-rule="evenodd" clip-rule="evenodd" d="M1.54986 26.4945C0.0610315 27.9833 -0.355146 30.1386 0.301325 32C-0.355147 33.8614 0.0610317 36.0167 1.54986 37.5055L26.4945 62.4501C28.5609 64.5166 31.9114 64.5166 33.9778 62.4501L58.9224 37.5055C60.4113 36.0167 60.8275 33.8614 60.171 32C60.8275 30.1386 60.4113 27.9833 58.9224 26.4945L33.9778 1.54986C31.9114 -0.516621 28.5609 -0.516619 26.4945 1.54986L1.54986 26.4945ZM2.38135 36.674C1.52801 35.8207 1.12773 34.6859 1.18051 33.5685C1.29526 33.7097 1.41838 33.8464 1.54986 33.9778L26.4945 58.9224C28.5609 60.9889 31.9114 60.9889 33.9778 58.9224L58.9224 33.9778C59.0539 33.8464 59.177 33.7097 59.2918 33.5685C59.3446 34.6859 58.9443 35.8207 58.091 36.674L33.1464 61.6187C31.5391 63.2259 28.9332 63.2259 27.3259 61.6187L2.38135 36.674ZM58.091 33.1464C58.4341 32.8033 58.7039 32.4147 58.9005 32C58.7039 31.5853 58.4341 31.1967 58.091 30.8536L33.1464 5.90904C31.5391 4.30177 28.9332 4.30178 27.3259 5.90904L2.38135 30.8536C2.03825 31.1967 1.7684 31.5853 1.57178 32C1.7684 32.4147 2.03825 32.8033 2.38135 33.1464L27.3259 58.091C28.9332 59.6982 31.5391 59.6982 33.1464 58.091L58.091 33.1464ZM58.9224 30.0222C59.0539 30.1536 59.177 30.2903 59.2918 30.4315C59.3446 29.3141 58.9443 28.1793 58.091 27.3259L33.1464 2.38135C31.5391 0.774083 28.9332 0.774085 27.3259 2.38135L2.38135 27.3259C1.52801 28.1793 1.12773 29.3141 1.18051 30.4315C1.29526 30.2903 1.41838 30.1536 1.54986 30.0222L26.4945 5.07755C28.5609 3.01107 31.9114 3.01107 33.9778 5.07755L58.9224 30.0222Z" fill="white"></path><path d="M74.9557 24.4742C74.7519 24.3802 74.5559 24.3331 74.3677 24.3331C74.0385 24.3331 73.7484 24.4507 73.4976 24.6859C73.2624 24.9211 73.1448 25.2033 73.1448 25.5325V39.6198C73.1448 39.9648 73.2467 40.2548 73.4505 40.49C73.67 40.7095 73.9444 40.8193 74.2737 40.8193C74.6186 40.8193 74.893 40.7095 75.0968 40.49C75.3163 40.2548 75.426 39.9648 75.426 39.6198V28.857L79.8474 35.7394C79.9572 35.8805 80.0983 36.0059 80.2708 36.1157C80.4589 36.2097 80.6392 36.2489 80.8117 36.2332C80.9998 36.2489 81.1801 36.2097 81.3526 36.1157C81.525 36.0059 81.6662 35.8805 81.7759 35.7394L86.1973 29.0068V39.6198C86.1973 39.9648 86.307 40.2548 86.5265 40.49C86.7617 40.7095 87.0675 40.8193 87.4437 40.8193C87.8044 40.8193 88.0944 40.7095 88.3139 40.49C88.5334 40.2548 88.6432 39.9648 88.6432 39.6198V25.5325C88.6432 25.1876 88.5177 24.9054 88.2669 24.6859C88.0317 24.4507 87.7573 24.3331 87.4437 24.3331C87.0518 24.3331 86.7304 24.5134 86.4795 24.874L80.8846 33.1908L75.426 24.874C75.3163 24.7016 75.1595 24.5683 74.9557 24.4742Z" fill="white"></path><path fill-rule="evenodd" clip-rule="evenodd" d="M101.678 36.7742L103.089 40.1137C103.184 40.3489 103.325 40.5449 103.513 40.7017C103.717 40.8428 103.936 40.9133 104.171 40.9133C104.454 40.9133 104.704 40.8114 104.924 40.6076C105.159 40.3881 105.277 40.1059 105.277 39.7609C105.277 39.6041 105.245 39.4474 105.183 39.2906L99.2795 25.0622C99.1855 24.8113 99.0365 24.6153 98.8327 24.4742C98.6289 24.3331 98.4094 24.2626 98.1742 24.2626C97.9233 24.2469 97.6882 24.3096 97.4687 24.4507C97.2648 24.5918 97.108 24.7957 96.9983 25.0622L91.0247 39.5022C90.9777 39.6433 90.9542 39.7688 90.9542 39.8785C90.9699 40.1764 91.0639 40.4273 91.2364 40.6311C91.4089 40.8193 91.6676 40.9133 92.0125 40.9133C92.2477 40.9133 92.4593 40.8428 92.6475 40.7017C92.8356 40.5606 92.9767 40.3646 93.0708 40.1137L94.4623 36.7742H101.678ZM98.044 28.178L95.403 34.5164H100.723L98.044 28.178Z" fill="white"></path><path d="M118.254 24.6389C118.019 24.4194 117.737 24.3096 117.407 24.3096C116.906 24.3096 116.545 24.5605 116.326 25.0622L111.576 37.023L106.542 25.0857C106.307 24.5683 105.938 24.3096 105.437 24.3096C105.186 24.3096 104.927 24.4115 104.661 24.6153C104.394 24.8192 104.261 25.1014 104.261 25.462C104.261 25.5561 104.269 25.6501 104.284 25.7442C104.3 25.8226 104.323 25.901 104.355 25.9794L110.305 40.0667C110.415 40.3019 110.564 40.4822 110.752 40.6076C110.956 40.733 111.167 40.8036 111.387 40.8193C111.606 40.8193 111.818 40.7565 112.022 40.6311C112.241 40.5057 112.414 40.3097 112.539 40.0432L118.489 25.9794C118.568 25.7912 118.607 25.6109 118.607 25.4385C118.607 25.1249 118.489 24.8584 118.254 24.6389Z" fill="white"></path><path d="M130.597 24.3566H122.46C122.13 24.3566 121.848 24.4742 121.613 24.7094C121.378 24.9289 121.26 25.2111 121.26 25.5561V39.6198C121.26 39.9648 121.378 40.2548 121.613 40.49C121.848 40.7095 122.13 40.8193 122.46 40.8193H130.597C130.926 40.8193 131.201 40.7173 131.42 40.5135C131.655 40.294 131.773 40.0196 131.773 39.6904C131.773 39.3925 131.655 39.1338 131.42 38.9143C131.201 38.6791 130.926 38.5615 130.597 38.5615H123.73V33.5287H129.539C129.868 33.5287 130.142 33.4268 130.362 33.2229C130.597 33.0191 130.714 32.7526 130.714 32.4233C130.714 32.0784 130.597 31.7962 130.362 31.5767C130.142 31.3572 129.868 31.2474 129.539 31.2474H123.73V26.6144H130.597C130.926 26.6144 131.201 26.5125 131.42 26.3086C131.655 26.1048 131.773 25.8383 131.773 25.509C131.773 25.1798 131.655 24.9054 131.42 24.6859C131.201 24.4664 130.926 24.3566 130.597 24.3566Z" fill="white"></path><path d="M147.795 24.6859C147.607 24.4664 147.356 24.3566 147.043 24.3566C146.729 24.3566 146.47 24.4664 146.267 24.6859C146.063 24.8897 145.961 25.1484 145.961 25.462V36.5971L136.883 24.78C136.789 24.6389 136.64 24.537 136.436 24.4742C136.248 24.3958 136.068 24.3566 135.895 24.3566C135.566 24.3566 135.284 24.4664 135.049 24.6859C134.813 24.9054 134.696 25.1955 134.696 25.5561V39.7374C134.696 40.0353 134.79 40.294 134.978 40.5135C135.182 40.7173 135.448 40.8193 135.778 40.8193C136.091 40.8193 136.35 40.7173 136.554 40.5135C136.758 40.294 136.859 40.0353 136.859 39.7374V28.6329L145.984 40.4665C146.079 40.5762 146.212 40.6625 146.384 40.7252C146.572 40.7879 146.745 40.8193 146.902 40.8193C147.247 40.8193 147.529 40.7095 147.748 40.49C147.983 40.2548 148.101 39.9648 148.101 39.6198V25.462C148.101 25.1484 147.999 24.8897 147.795 24.6859Z" fill="white"></path></g><defs><clipPath id="clip0_1_2"><rect width="149" height="64" fill="white"></rect></clipPath></defs></svg>