<svg xmlns="http://www.w3.org/2000/svg" width="138" height="612" viewBox="0 0 138 612" fill="none"><rect width="138" height="124" fill="#122B3F" fill-opacity="0.02"></rect><path d="M69.7656 10.875V45H67.8672V10.875H69.7656Z" fill="white"></path><line x1="29" y1="57.6" x2="109" y2="57.6" stroke="white" stroke-width="0.8"></line><path d="M14.9062 78.3281L2.76562 111H0.75L13.5703 76.875H15.1406L14.9062 78.3281ZM26.3906 111L14.2734 78.3281L14.0391 76.875H15.5859L28.4297 111H26.3906ZM23.3906 99.3047V101.062H5.88281V99.3047H23.3906ZM49.8984 106.078V75H51.75V111H49.9688L49.8984 106.078ZM31.9453 98.5547V98.0625C31.9453 96.0781 32.1641 94.2969 32.6016 92.7188C33.0391 91.125 33.6719 89.7734 34.5 88.6641C35.3281 87.5391 36.3359 86.6797 37.5234 86.0859C38.7266 85.4766 40.0859 85.1719 41.6016 85.1719C43.0234 85.1719 44.2891 85.3984 45.3984 85.8516C46.5078 86.2891 47.4688 86.9219 48.2812 87.75C49.0938 88.5625 49.7578 89.5234 50.2734 90.6328C50.8047 91.7266 51.1953 92.9375 51.4453 94.2656V103.008C51.2578 104.18 50.9062 105.281 50.3906 106.312C49.8906 107.328 49.2266 108.227 48.3984 109.008C47.5859 109.773 46.6094 110.375 45.4688 110.812C44.3281 111.25 43.0234 111.469 41.5547 111.469C40.0547 111.469 38.7109 111.156 37.5234 110.531C36.3359 109.906 35.3281 109.023 34.5 107.883C33.6719 106.742 33.0391 105.383 32.6016 103.805C32.1641 102.227 31.9453 100.477 31.9453 98.5547ZM33.8438 98.0625V98.5547C33.8438 100.164 34 101.648 34.3125 103.008C34.6406 104.367 35.125 105.547 35.7656 106.547C36.4219 107.547 37.2422 108.328 38.2266 108.891C39.2266 109.453 40.3984 109.734 41.7422 109.734C43.4609 109.734 44.9141 109.422 46.1016 108.797C47.2891 108.172 48.2344 107.344 48.9375 106.312C49.6562 105.281 50.1562 104.141 50.4375 102.891V94.6172C50.2656 93.8203 49.9922 92.9766 49.6172 92.0859C49.2578 91.1797 48.75 90.3359 48.0938 89.5547C47.4531 88.7734 46.6172 88.1406 45.5859 87.6562C44.5547 87.1562 43.2891 86.9062 41.7891 86.9062C40.4297 86.9062 39.25 87.1875 38.25 87.75C37.2656 88.3125 36.4453 89.0938 35.7891 90.0938C35.1328 91.0938 34.6406 92.2734 34.3125 93.6328C34 94.9922 33.8438 96.4688 33.8438 98.0625ZM66.8672 109.031L75.7266 85.6406H77.6953L67.9688 111H66.4453L66.8672 109.031ZM58.5703 85.6406L67.4766 109.078L67.875 111H66.3281L56.6016 85.6406H58.5703ZM84.7266 85.6406V111H82.8516V85.6406H84.7266ZM82.2656 77.9531C82.2656 77.5312 82.4062 77.1719 82.6875 76.875C82.9844 76.5625 83.3594 76.4062 83.8125 76.4062C84.25 76.4062 84.6172 76.5625 84.9141 76.875C85.2109 77.1719 85.3594 77.5312 85.3594 77.9531C85.3594 78.375 85.2109 78.7344 84.9141 79.0312C84.6172 79.3125 84.25 79.4531 83.8125 79.4531C83.3594 79.4531 82.9844 79.3125 82.6875 79.0312C82.4062 78.7344 82.2656 78.375 82.2656 77.9531ZM108.281 104.695C108.281 103.945 108.078 103.203 107.672 102.469C107.281 101.734 106.555 101.047 105.492 100.406C104.445 99.7656 102.922 99.2266 100.922 98.7891C99.5 98.4766 98.2422 98.1328 97.1484 97.7578C96.0703 97.3828 95.1641 96.9297 94.4297 96.3984C93.6953 95.8516 93.1406 95.2031 92.7656 94.4531C92.4062 93.7031 92.2266 92.8047 92.2266 91.7578C92.2266 90.8516 92.4219 90 92.8125 89.2031C93.2031 88.4062 93.7734 87.7109 94.5234 87.1172C95.2891 86.5078 96.2031 86.0312 97.2656 85.6875C98.3281 85.3438 99.5312 85.1719 100.875 85.1719C102.797 85.1719 104.438 85.4922 105.797 86.1328C107.172 86.7578 108.227 87.625 108.961 88.7344C109.695 89.8281 110.062 91.1016 110.062 92.5547H108.188C108.188 91.5703 107.906 90.6484 107.344 89.7891C106.781 88.9297 105.953 88.2344 104.859 87.7031C103.781 87.1562 102.453 86.8828 100.875 86.8828C99.2812 86.8828 97.9844 87.125 96.9844 87.6094C95.9844 88.0938 95.25 88.7109 94.7812 89.4609C94.3281 90.1953 94.1016 90.9453 94.1016 91.7109C94.1016 92.3203 94.1875 92.8906 94.3594 93.4219C94.5469 93.9375 94.8984 94.4141 95.4141 94.8516C95.9297 95.2891 96.6719 95.7109 97.6406 96.1172C98.6094 96.5078 99.8672 96.875 101.414 97.2188C103.445 97.6719 105.102 98.2266 106.383 98.8828C107.664 99.5234 108.609 100.312 109.219 101.25C109.828 102.172 110.133 103.305 110.133 104.648C110.133 105.648 109.922 106.57 109.5 107.414C109.078 108.242 108.469 108.961 107.672 109.57C106.891 110.18 105.938 110.648 104.812 110.977C103.688 111.305 102.438 111.469 101.062 111.469C98.9844 111.469 97.2188 111.141 95.7656 110.484C94.3281 109.812 93.2344 108.93 92.4844 107.836C91.75 106.742 91.3828 105.562 91.3828 104.297H93.2578C93.3672 105.688 93.8203 106.781 94.6172 107.578C95.4297 108.375 96.4141 108.938 97.5703 109.266C98.7422 109.594 99.9062 109.758 101.062 109.758C102.641 109.758 103.961 109.516 105.023 109.031C106.102 108.531 106.914 107.898 107.461 107.133C108.008 106.352 108.281 105.539 108.281 104.695ZM126.258 111.469C124.664 111.469 123.188 111.164 121.828 110.555C120.469 109.93 119.281 109.062 118.266 107.953C117.25 106.828 116.453 105.5 115.875 103.969C115.312 102.438 115.031 100.758 115.031 98.9297V97.8984C115.031 96.0078 115.312 94.2891 115.875 92.7422C116.453 91.1797 117.234 89.8359 118.219 88.7109C119.203 87.5703 120.336 86.6953 121.617 86.0859C122.914 85.4766 124.297 85.1719 125.766 85.1719C127.25 85.1719 128.594 85.4453 129.797 85.9922C131 86.5391 132.031 87.3047 132.891 88.2891C133.75 89.2734 134.406 90.4453 134.859 91.8047C135.312 93.1641 135.539 94.6641 135.539 96.3047V97.875H116.203V96.1641H133.688V95.8594C133.672 94.2656 133.344 92.7891 132.703 91.4297C132.078 90.0703 131.18 88.9766 130.008 88.1484C128.836 87.3047 127.422 86.8828 125.766 86.8828C124.438 86.8828 123.227 87.1641 122.133 87.7266C121.055 88.2891 120.125 89.0703 119.344 90.0703C118.562 91.0547 117.961 92.2188 117.539 93.5625C117.117 94.8906 116.906 96.3359 116.906 97.8984V98.9297C116.906 100.43 117.141 101.836 117.609 103.148C118.078 104.461 118.734 105.617 119.578 106.617C120.422 107.602 121.414 108.375 122.555 108.938C123.695 109.5 124.945 109.781 126.305 109.781C127.773 109.781 129.117 109.523 130.336 109.008C131.555 108.492 132.664 107.586 133.664 106.289L134.883 107.203C134.32 108.016 133.641 108.742 132.844 109.383C132.047 110.023 131.102 110.531 130.008 110.906C128.93 111.281 127.68 111.469 126.258 111.469Z" fill="white"></path><rect width="138" height="124" transform="translate(0 244)" fill="#122B3F" fill-opacity="0.02"></rect><path d="M63.2656 254.875V289H61.3672V254.875H63.2656ZM75.875 254.875V289H73.9766V254.875H75.875Z" fill="white"></path><line x1="29" y1="301.6" x2="109" y2="301.6" stroke="white" stroke-width="0.8"></line><path d="M13.2656 320.875V355H11.3672V320.875H13.2656ZM24.3516 335.055V355H22.5V329.641H24.3281L24.3516 335.055ZM24 340.375L23.0859 339.297C23.2266 337.953 23.5547 336.672 24.0703 335.453C24.6016 334.234 25.2969 333.156 26.1562 332.219C27.0312 331.281 28.0469 330.539 29.2031 329.992C30.375 329.445 31.6641 329.172 33.0703 329.172C34.3359 329.172 35.4688 329.352 36.4688 329.711C37.4688 330.055 38.3125 330.602 39 331.352C39.7031 332.102 40.2344 333.07 40.5938 334.258C40.9531 335.43 41.1328 336.859 41.1328 338.547V355H39.2812V338.547C39.2812 336.547 39.0078 335 38.4609 333.906C37.9141 332.797 37.1484 332.016 36.1641 331.562C35.1953 331.109 34.0625 330.883 32.7656 330.883C31.2656 330.883 29.9688 331.219 28.875 331.891C27.7969 332.547 26.9062 333.383 26.2031 334.398C25.5 335.398 24.9609 336.438 24.5859 337.516C24.2266 338.594 24.0312 339.547 24 340.375ZM56.1797 353.031L65.0391 329.641H67.0078L57.2812 355H55.7578L56.1797 353.031ZM47.8828 329.641L56.7891 353.078L57.1875 355H55.6406L45.9141 329.641H47.8828ZM80.9297 355.469C79.3359 355.469 77.8594 355.164 76.5 354.555C75.1406 353.93 73.9531 353.062 72.9375 351.953C71.9219 350.828 71.125 349.5 70.5469 347.969C69.9844 346.438 69.7031 344.758 69.7031 342.93V341.898C69.7031 340.008 69.9844 338.289 70.5469 336.742C71.125 335.18 71.9062 333.836 72.8906 332.711C73.875 331.57 75.0078 330.695 76.2891 330.086C77.5859 329.477 78.9688 329.172 80.4375 329.172C81.9219 329.172 83.2656 329.445 84.4688 329.992C85.6719 330.539 86.7031 331.305 87.5625 332.289C88.4219 333.273 89.0781 334.445 89.5312 335.805C89.9844 337.164 90.2109 338.664 90.2109 340.305V341.875H70.875V340.164H88.3594V339.859C88.3438 338.266 88.0156 336.789 87.375 335.43C86.75 334.07 85.8516 332.977 84.6797 332.148C83.5078 331.305 82.0938 330.883 80.4375 330.883C79.1094 330.883 77.8984 331.164 76.8047 331.727C75.7266 332.289 74.7969 333.07 74.0156 334.07C73.2344 335.055 72.6328 336.219 72.2109 337.562C71.7891 338.891 71.5781 340.336 71.5781 341.898V342.93C71.5781 344.43 71.8125 345.836 72.2812 347.148C72.75 348.461 73.4062 349.617 74.25 350.617C75.0938 351.602 76.0859 352.375 77.2266 352.938C78.3672 353.5 79.6172 353.781 80.9766 353.781C82.4453 353.781 83.7891 353.523 85.0078 353.008C86.2266 352.492 87.3359 351.586 88.3359 350.289L89.5547 351.203C88.9922 352.016 88.3125 352.742 87.5156 353.383C86.7188 354.023 85.7734 354.531 84.6797 354.906C83.6016 355.281 82.3516 355.469 80.9297 355.469ZM111.469 348.695C111.469 347.945 111.266 347.203 110.859 346.469C110.469 345.734 109.742 345.047 108.68 344.406C107.633 343.766 106.109 343.227 104.109 342.789C102.688 342.477 101.43 342.133 100.336 341.758C99.2578 341.383 98.3516 340.93 97.6172 340.398C96.8828 339.852 96.3281 339.203 95.9531 338.453C95.5938 337.703 95.4141 336.805 95.4141 335.758C95.4141 334.852 95.6094 334 96 333.203C96.3906 332.406 96.9609 331.711 97.7109 331.117C98.4766 330.508 99.3906 330.031 100.453 329.688C101.516 329.344 102.719 329.172 104.062 329.172C105.984 329.172 107.625 329.492 108.984 330.133C110.359 330.758 111.414 331.625 112.148 332.734C112.883 333.828 113.25 335.102 113.25 336.555H111.375C111.375 335.57 111.094 334.648 110.531 333.789C109.969 332.93 109.141 332.234 108.047 331.703C106.969 331.156 105.641 330.883 104.062 330.883C102.469 330.883 101.172 331.125 100.172 331.609C99.1719 332.094 98.4375 332.711 97.9688 333.461C97.5156 334.195 97.2891 334.945 97.2891 335.711C97.2891 336.32 97.375 336.891 97.5469 337.422C97.7344 337.938 98.0859 338.414 98.6016 338.852C99.1172 339.289 99.8594 339.711 100.828 340.117C101.797 340.508 103.055 340.875 104.602 341.219C106.633 341.672 108.289 342.227 109.57 342.883C110.852 343.523 111.797 344.312 112.406 345.25C113.016 346.172 113.32 347.305 113.32 348.648C113.32 349.648 113.109 350.57 112.688 351.414C112.266 352.242 111.656 352.961 110.859 353.57C110.078 354.18 109.125 354.648 108 354.977C106.875 355.305 105.625 355.469 104.25 355.469C102.172 355.469 100.406 355.141 98.9531 354.484C97.5156 353.812 96.4219 352.93 95.6719 351.836C94.9375 350.742 94.5703 349.562 94.5703 348.297H96.4453C96.5547 349.688 97.0078 350.781 97.8047 351.578C98.6172 352.375 99.6016 352.938 100.758 353.266C101.93 353.594 103.094 353.758 104.25 353.758C105.828 353.758 107.148 353.516 108.211 353.031C109.289 352.531 110.102 351.898 110.648 351.133C111.195 350.352 111.469 349.539 111.469 348.695ZM129.047 329.641V331.328H116.906V329.641H129.047ZM121.594 322.938H123.469V348.883C123.469 350.242 123.633 351.273 123.961 351.977C124.305 352.664 124.75 353.133 125.297 353.383C125.859 353.617 126.461 353.734 127.102 353.734C127.555 353.734 127.969 353.711 128.344 353.664C128.734 353.617 129.125 353.562 129.516 353.5L129.68 355.141C129.336 355.25 128.891 355.328 128.344 355.375C127.797 355.438 127.312 355.469 126.891 355.469C125.828 355.469 124.898 355.273 124.102 354.883C123.305 354.492 122.688 353.82 122.25 352.867C121.812 351.898 121.594 350.57 121.594 348.883V322.938Z" fill="white"></path><rect width="138" height="124" transform="translate(0 488)" fill="#122B3F" fill-opacity="0.02"></rect><rect width="103" height="124" transform="translate(17.5 488)" fill="#122B3F" fill-opacity="0.02"></rect><path d="M57.2656 498.875V533H55.3672V498.875H57.2656ZM69.875 498.875V533H67.9766V498.875H69.875ZM82.4844 498.875V533H80.5859V498.875H82.4844Z" fill="white"></path><line x1="29" y1="545.6" x2="109" y2="545.6" stroke="white" stroke-width="0.8"></line><path d="M33.5781 582.312H23.3594L23.3125 580.602H31.8672C33.7734 580.602 35.3828 580.344 36.6953 579.828C38.0078 579.312 39 578.539 39.6719 577.508C40.3438 576.461 40.6797 575.156 40.6797 573.594C40.6797 572.031 40.3359 570.734 39.6484 569.703C38.9609 568.672 37.9297 567.898 36.5547 567.383C35.1953 566.867 33.4922 566.609 31.4453 566.609H23.9453V599H22.0469V564.875H31.4453C33.1797 564.875 34.7344 565.047 36.1094 565.391C37.4844 565.734 38.6484 566.273 39.6016 567.008C40.5703 567.727 41.3125 568.641 41.8281 569.75C42.3438 570.859 42.6016 572.172 42.6016 573.688C42.6016 575.094 42.3203 576.359 41.7578 577.484C41.1953 578.609 40.3828 579.531 39.3203 580.25C38.2734 580.953 36.9922 581.383 35.4766 581.539L33.5781 582.312ZM33.3438 599H22.9609L23.7812 597.266H33.3438C35.1719 597.266 36.7344 596.961 38.0312 596.352C39.3438 595.727 40.3516 594.844 41.0547 593.703C41.7734 592.547 42.1328 591.164 42.1328 589.555C42.1328 588.258 41.8203 587.062 41.1953 585.969C40.5703 584.859 39.625 583.977 38.3594 583.32C37.0938 582.648 35.5 582.312 33.5781 582.312H27.8594L27.9062 580.602H36.1328L36.3906 581.211C37.875 581.383 39.1875 581.859 40.3281 582.641C41.4844 583.422 42.3906 584.414 43.0469 585.617C43.7031 586.805 44.0312 588.102 44.0312 589.508C44.0312 591.555 43.5781 593.281 42.6719 594.688C41.7656 596.094 40.5078 597.164 38.8984 597.898C37.3047 598.633 35.4531 599 33.3438 599ZM67.2578 593.141V573.641H69.1328V599H67.2812L67.2578 593.141ZM67.5859 588.828L68.8047 588.781C68.8047 590.328 68.6094 591.75 68.2188 593.047C67.8438 594.344 67.25 595.477 66.4375 596.445C65.6406 597.398 64.6094 598.141 63.3438 598.672C62.0781 599.203 60.5625 599.469 58.7969 599.469C57.5625 599.469 56.4297 599.297 55.3984 598.953C54.3828 598.594 53.5 598.031 52.75 597.266C52.0156 596.5 51.4453 595.5 51.0391 594.266C50.6484 593.031 50.4531 591.539 50.4531 589.789V573.641H52.3047V589.836C52.3047 591.305 52.4688 592.547 52.7969 593.562C53.1406 594.578 53.6094 595.391 54.2031 596C54.7969 596.609 55.4922 597.055 56.2891 597.336C57.0859 597.602 57.9531 597.734 58.8906 597.734C61.0781 597.734 62.8047 597.312 64.0703 596.469C65.3516 595.625 66.2578 594.523 66.7891 593.164C67.3203 591.805 67.5859 590.359 67.5859 588.828ZM79.0703 573.641V599H77.1953V573.641H79.0703ZM76.6094 565.953C76.6094 565.531 76.75 565.172 77.0312 564.875C77.3281 564.562 77.7031 564.406 78.1562 564.406C78.5938 564.406 78.9609 564.562 79.2578 564.875C79.5547 565.172 79.7031 565.531 79.7031 565.953C79.7031 566.375 79.5547 566.734 79.2578 567.031C78.9609 567.312 78.5938 567.453 78.1562 567.453C77.7031 567.453 77.3281 567.312 77.0312 567.031C76.75 566.734 76.6094 566.375 76.6094 565.953ZM89.3359 563V599H87.4609V563H89.3359ZM114.227 594.078V563H116.078V599H114.297L114.227 594.078ZM96.2734 586.555V586.062C96.2734 584.078 96.4922 582.297 96.9297 580.719C97.3672 579.125 98 577.773 98.8281 576.664C99.6562 575.539 100.664 574.68 101.852 574.086C103.055 573.477 104.414 573.172 105.93 573.172C107.352 573.172 108.617 573.398 109.727 573.852C110.836 574.289 111.797 574.922 112.609 575.75C113.422 576.562 114.086 577.523 114.602 578.633C115.133 579.727 115.523 580.938 115.773 582.266V591.008C115.586 592.18 115.234 593.281 114.719 594.312C114.219 595.328 113.555 596.227 112.727 597.008C111.914 597.773 110.938 598.375 109.797 598.812C108.656 599.25 107.352 599.469 105.883 599.469C104.383 599.469 103.039 599.156 101.852 598.531C100.664 597.906 99.6562 597.023 98.8281 595.883C98 594.742 97.3672 593.383 96.9297 591.805C96.4922 590.227 96.2734 588.477 96.2734 586.555ZM98.1719 586.062V586.555C98.1719 588.164 98.3281 589.648 98.6406 591.008C98.9688 592.367 99.4531 593.547 100.094 594.547C100.75 595.547 101.57 596.328 102.555 596.891C103.555 597.453 104.727 597.734 106.07 597.734C107.789 597.734 109.242 597.422 110.43 596.797C111.617 596.172 112.562 595.344 113.266 594.312C113.984 593.281 114.484 592.141 114.766 590.891V582.617C114.594 581.82 114.32 580.977 113.945 580.086C113.586 579.18 113.078 578.336 112.422 577.555C111.781 576.773 110.945 576.141 109.914 575.656C108.883 575.156 107.617 574.906 106.117 574.906C104.758 574.906 103.578 575.188 102.578 575.75C101.594 576.312 100.773 577.094 100.117 578.094C99.4609 579.094 98.9688 580.273 98.6406 581.633C98.3281 582.992 98.1719 584.469 98.1719 586.062Z" fill="white"></path></svg>