<svg xmlns="http://www.w3.org/2000/svg" width="197" height="1150" viewBox="0 0 197 1150" fill="none"><path d="M87.5153 963.379V962.261L90.9733 961.897H91.7013L95.1853 962.261V963.379H87.5153ZM89.6473 963.379C89.682 962.53 89.6993 961.663 89.6993 960.779C89.7167 959.878 89.7253 958.968 89.7253 958.049C89.7253 957.13 89.7253 956.212 89.7253 955.293V954.175C89.7253 953.274 89.7253 952.372 89.7253 951.471C89.7253 950.552 89.7167 949.642 89.6993 948.741C89.6993 947.84 89.682 946.964 89.6473 946.115H93.0533C93.036 946.947 93.0187 947.814 93.0013 948.715C92.984 949.616 92.9753 950.526 92.9753 951.445C92.9753 952.346 92.9753 953.256 92.9753 954.175V955.293C92.9753 956.194 92.9753 957.104 92.9753 958.023C92.9753 958.924 92.984 959.826 93.0013 960.727C93.0187 961.628 93.036 962.512 93.0533 963.379H89.6473ZM87.5153 947.233V946.115H95.1853V947.233L91.7013 947.597H90.9733L87.5153 947.233ZM97.1638 963.379V962.261L100.622 961.897H101.35L104.834 962.261V963.379H97.1638ZM99.2958 963.379C99.3304 962.53 99.3478 961.663 99.3478 960.779C99.3651 959.878 99.3738 958.968 99.3738 958.049C99.3738 957.13 99.3738 956.212 99.3738 955.293V954.175C99.3738 953.274 99.3738 952.372 99.3738 951.471C99.3738 950.552 99.3651 949.642 99.3478 948.741C99.3478 947.84 99.3304 946.964 99.2958 946.115H102.702C102.684 946.947 102.667 947.814 102.65 948.715C102.632 949.616 102.624 950.526 102.624 951.445C102.624 952.346 102.624 953.256 102.624 954.175V955.293C102.624 956.194 102.624 957.104 102.624 958.023C102.624 958.924 102.632 959.826 102.65 960.727C102.667 961.628 102.684 962.512 102.702 963.379H99.2958ZM97.1638 947.233V946.115H104.834V947.233L101.35 947.597H100.622L97.1638 947.233ZM106.812 963.379V962.261L110.27 961.897H110.998L114.482 962.261V963.379H106.812ZM108.944 963.379C108.979 962.53 108.996 961.663 108.996 960.779C109.014 959.878 109.022 958.968 109.022 958.049C109.022 957.13 109.022 956.212 109.022 955.293V954.175C109.022 953.274 109.022 952.372 109.022 951.471C109.022 950.552 109.014 949.642 108.996 948.741C108.996 947.84 108.979 946.964 108.944 946.115H112.35C112.333 946.947 112.316 947.814 112.298 948.715C112.281 949.616 112.272 950.526 112.272 951.445C112.272 952.346 112.272 953.256 112.272 954.175V955.293C112.272 956.194 112.272 957.104 112.272 958.023C112.272 958.924 112.281 959.826 112.298 960.727C112.316 961.628 112.333 962.512 112.35 963.379H108.944ZM106.812 947.233V946.115H114.482V947.233L110.998 947.597H110.27L106.812 947.233Z" fill="white"></path><path d="M68.4138 998.379V997.261L71.8718 996.897H72.2358V998.379H68.4138ZM70.5458 998.379C70.5804 997.512 70.5978 996.637 70.5978 995.753C70.6151 994.852 70.6238 993.942 70.6238 993.023C70.6238 992.087 70.6238 991.168 70.6238 990.267V989.227C70.6238 988.326 70.6238 987.416 70.6238 986.497C70.6238 985.578 70.6151 984.668 70.5978 983.767C70.5978 982.866 70.5804 981.982 70.5458 981.115H73.9258C73.9084 981.964 73.8911 982.84 73.8738 983.741C73.8564 984.642 73.8478 985.552 73.8478 986.471C73.8478 987.39 73.8478 988.308 73.8478 989.227V990.033C73.8478 991.021 73.8478 991.992 73.8478 992.945C73.8478 993.881 73.8564 994.808 73.8738 995.727C73.8911 996.628 73.9084 997.512 73.9258 998.379H70.5458ZM72.2098 998.379V997.131H75.0958C76.5518 997.131 77.6438 996.828 78.3718 996.221C79.1171 995.614 79.4898 994.748 79.4898 993.621C79.4898 992.39 79.1258 991.48 78.3978 990.891C77.6871 990.302 76.5518 990.007 74.9918 990.007H72.2098V988.837H74.8618C75.7631 988.837 76.4998 988.716 77.0718 988.473C77.6611 988.213 78.0944 987.84 78.3718 987.355C78.6491 986.852 78.7878 986.22 78.7878 985.457C78.7878 984.729 78.6578 984.14 78.3978 983.689C78.1378 983.221 77.7391 982.883 77.2018 982.675C76.6818 982.45 76.0318 982.337 75.2518 982.337H72.2098V981.115H76.1098C77.4444 981.115 78.5364 981.297 79.3858 981.661C80.2524 982.008 80.8938 982.493 81.3098 983.117C81.7258 983.724 81.9338 984.426 81.9338 985.223C81.9338 985.916 81.7604 986.558 81.4138 987.147C81.0844 987.736 80.5384 988.23 79.7758 988.629C79.0131 989.028 77.9904 989.296 76.7078 989.435V989.201C78.1464 989.288 79.3164 989.53 80.2178 989.929C81.1364 990.328 81.8038 990.839 82.2198 991.463C82.6531 992.087 82.8698 992.806 82.8698 993.621C82.8698 994.21 82.7398 994.791 82.4798 995.363C82.2198 995.918 81.8038 996.429 81.2318 996.897C80.6598 997.348 79.8971 997.712 78.9438 997.989C78.0078 998.249 76.8638 998.379 75.5118 998.379H72.2098ZM68.4138 982.233V981.115H72.2358V982.597H71.8718L68.4138 982.233ZM88.9877 998.743C87.913 998.743 87.0637 998.396 86.4397 997.703C85.8157 997.01 85.5037 995.831 85.5037 994.167L85.6077 987.173L86.2577 987.849L83.9177 987.329V986.393L88.3377 985.795L88.6757 986.055L88.5457 989.539V994.063C88.5457 995.034 88.693 995.71 88.9877 996.091C89.2997 996.472 89.7504 996.663 90.3397 996.663C90.721 996.663 91.111 996.585 91.5097 996.429C91.9084 996.256 92.307 996.022 92.7057 995.727C93.1044 995.415 93.477 995.06 93.8237 994.661L94.2397 995.675H93.8497C93.4164 996.334 92.9397 996.888 92.4197 997.339C91.917 997.79 91.371 998.136 90.7817 998.379C90.2097 998.622 89.6117 998.743 88.9877 998.743ZM93.5377 998.639L93.3037 995.649V995.597L93.3817 987.667L91.7437 987.329V986.445L96.1117 985.795L96.4237 986.055L96.3457 989.539V997.105L97.9057 997.417V998.379L93.5377 998.639ZM99.4375 998.379V997.391L102.037 996.897H103.259L105.781 997.391V998.379H99.4375ZM101.075 998.379C101.093 997.98 101.101 997.46 101.101 996.819C101.119 996.16 101.127 995.484 101.127 994.791C101.145 994.08 101.153 993.456 101.153 992.919V991.723C101.153 990.995 101.145 990.388 101.127 989.903C101.127 989.418 101.11 988.915 101.075 988.395L99.2555 988.135V987.251L103.883 985.665L104.273 985.925L104.195 989.539V992.919C104.195 993.456 104.195 994.08 104.195 994.791C104.213 995.484 104.221 996.16 104.221 996.819C104.239 997.46 104.256 997.98 104.273 998.379H101.075ZM102.557 983.377C102.037 983.377 101.587 983.212 101.205 982.883C100.841 982.536 100.659 982.094 100.659 981.557C100.659 981.037 100.841 980.612 101.205 980.283C101.587 979.936 102.037 979.763 102.557 979.763C103.095 979.763 103.545 979.936 103.909 980.283C104.273 980.612 104.455 981.037 104.455 981.557C104.455 982.094 104.273 982.536 103.909 982.883C103.545 983.212 103.095 983.377 102.557 983.377ZM107.127 998.379V997.391L109.805 996.897H111.027L113.757 997.391V998.379H107.127ZM108.869 998.379C108.887 997.807 108.895 997.218 108.895 996.611C108.913 995.987 108.921 995.372 108.921 994.765C108.939 994.141 108.947 993.526 108.947 992.919V981.661L107.075 981.375V980.439L111.677 979.295L112.067 979.529L111.963 983.377V992.919C111.963 993.526 111.963 994.141 111.963 994.765C111.981 995.372 111.989 995.987 111.989 996.611C112.007 997.218 112.024 997.807 112.041 998.379H108.869ZM120.484 998.743C119.478 998.743 118.586 998.492 117.806 997.989C117.043 997.469 116.436 996.732 115.986 995.779C115.552 994.826 115.336 993.682 115.336 992.347C115.336 990.978 115.587 989.799 116.09 988.811C116.592 987.806 117.26 987.034 118.092 986.497C118.924 985.942 119.842 985.665 120.848 985.665C121.368 985.665 121.844 985.743 122.278 985.899C122.711 986.038 123.118 986.272 123.5 986.601C123.881 986.93 124.254 987.364 124.618 987.901H125.112L124.852 989.253C124.228 988.577 123.682 988.1 123.214 987.823C122.746 987.546 122.243 987.407 121.706 987.407C121.134 987.407 120.605 987.58 120.12 987.927C119.634 988.274 119.244 988.811 118.95 989.539C118.672 990.25 118.534 991.16 118.534 992.269C118.534 993.326 118.664 994.21 118.924 994.921C119.201 995.614 119.574 996.134 120.042 996.481C120.527 996.81 121.082 996.975 121.706 996.975C122.33 996.975 122.884 996.793 123.37 996.429C123.855 996.065 124.349 995.536 124.852 994.843L125.086 996.221H124.618C124.288 996.758 123.916 997.218 123.5 997.599C123.101 997.98 122.65 998.266 122.148 998.457C121.645 998.648 121.09 998.743 120.484 998.743ZM124.28 998.665L124.02 996.195V996.117V988.135L124.124 987.823V981.661L122.148 981.375V980.439L126.776 979.295L127.14 979.529L127.036 983.429V997.131L128.726 997.391V998.379L124.28 998.665Z" fill="white"></path><path d="M90.3396 590.953V589.835L93.7976 589.471H94.5256L98.0096 589.835V590.953H90.3396ZM92.4716 590.953C92.5062 590.104 92.5236 589.237 92.5236 588.353C92.5409 587.452 92.5496 586.542 92.5496 585.623C92.5496 584.704 92.5496 583.786 92.5496 582.867V581.749C92.5496 580.848 92.5496 579.946 92.5496 579.045C92.5496 578.126 92.5409 577.216 92.5236 576.315C92.5236 575.414 92.5062 574.538 92.4716 573.689H95.8776C95.8602 574.521 95.8429 575.388 95.8256 576.289C95.8082 577.19 95.7996 578.1 95.7996 579.019C95.7996 579.92 95.7996 580.83 95.7996 581.749V582.867C95.7996 583.768 95.7996 584.678 95.7996 585.597C95.7996 586.498 95.8082 587.4 95.8256 588.301C95.8429 589.202 95.8602 590.086 95.8776 590.953H92.4716ZM90.3396 574.807V573.689H98.0096V574.807L94.5256 575.171H93.7976L90.3396 574.807ZM99.988 590.953V589.835L103.446 589.471H104.174L107.658 589.835V590.953H99.988ZM102.12 590.953C102.155 590.104 102.172 589.237 102.172 588.353C102.189 587.452 102.198 586.542 102.198 585.623C102.198 584.704 102.198 583.786 102.198 582.867V581.749C102.198 580.848 102.198 579.946 102.198 579.045C102.198 578.126 102.189 577.216 102.172 576.315C102.172 575.414 102.155 574.538 102.12 573.689H105.526C105.509 574.521 105.491 575.388 105.474 576.289C105.457 577.19 105.448 578.1 105.448 579.019C105.448 579.92 105.448 580.83 105.448 581.749V582.867C105.448 583.768 105.448 584.678 105.448 585.597C105.448 586.498 105.457 587.4 105.474 588.301C105.491 589.202 105.509 590.086 105.526 590.953H102.12ZM99.988 574.807V573.689H107.658V574.807L104.174 575.171H103.446L99.988 574.807Z" fill="white"></path><path d="M63.7009 625.953V624.835L67.1589 624.471H67.8869L71.3709 624.835V625.953H63.7009ZM65.8329 625.953C65.8676 625.104 65.8849 624.237 65.8849 623.353C65.9022 622.452 65.9109 621.542 65.9109 620.623C65.9109 619.704 65.9109 618.786 65.9109 617.867V616.749C65.9109 615.848 65.9109 614.946 65.9109 614.045C65.9109 613.126 65.9022 612.216 65.8849 611.315C65.8849 610.414 65.8676 609.538 65.8329 608.689H69.2389C69.2216 609.521 69.2042 610.388 69.1869 611.289C69.1696 612.19 69.1609 613.1 69.1609 614.019C69.1609 614.92 69.1609 615.83 69.1609 616.749V617.867C69.1609 618.768 69.1609 619.678 69.1609 620.597C69.1609 621.498 69.1696 622.4 69.1869 623.301C69.2042 624.202 69.2216 625.086 69.2389 625.953H65.8329ZM63.7009 609.807V608.689H71.3709V609.807L67.8869 610.171H67.1589L63.7009 609.807ZM73.2453 625.953V624.965L75.8453 624.471H77.0673L79.5633 624.965V625.953H73.2453ZM74.8833 625.953C74.9007 625.554 74.9093 625.034 74.9093 624.393C74.9267 623.734 74.9353 623.058 74.9353 622.365C74.9527 621.654 74.9613 621.03 74.9613 620.493V619.167C74.9613 618.682 74.9527 618.266 74.9353 617.919C74.9353 617.572 74.9267 617.252 74.9093 616.957C74.9093 616.645 74.9007 616.316 74.8833 615.969L73.0633 615.709V614.825L77.3533 613.239L77.7433 613.499L77.9773 616.385V616.437V620.493C77.9773 621.03 77.9773 621.654 77.9773 622.365C77.9947 623.058 78.012 623.734 78.0293 624.393C78.0467 625.034 78.064 625.554 78.0813 625.953H74.8833ZM81.0713 625.953V624.965L83.6193 624.471H84.8413L87.3893 624.965V625.953H81.0713ZM82.6833 625.953C82.7007 625.554 82.7093 625.034 82.7093 624.393C82.7267 623.752 82.7353 623.084 82.7353 622.391C82.7527 621.68 82.7613 621.048 82.7613 620.493V618.023C82.7613 617 82.614 616.298 82.3193 615.917C82.042 615.518 81.574 615.319 80.9153 615.319C80.5513 615.319 80.1787 615.388 79.7973 615.527C79.416 615.666 79.026 615.874 78.6273 616.151C78.2287 616.411 77.8213 616.749 77.4053 617.165L77.1973 615.943H77.5613C78.012 615.371 78.4887 614.886 78.9913 614.487C79.5113 614.071 80.0487 613.759 80.6033 613.551C81.1753 613.343 81.7387 613.239 82.2933 613.239C83.4027 613.239 84.2607 613.603 84.8673 614.331C85.474 615.059 85.7773 616.212 85.7773 617.789V620.493C85.7773 621.048 85.7773 621.68 85.7773 622.391C85.7947 623.084 85.8033 623.752 85.8033 624.393C85.8207 625.034 85.838 625.554 85.8553 625.953H82.6833ZM93.1682 626.057L87.9942 613.603H91.4002L95.0142 623.249H94.4942L94.6242 622.911L97.8482 613.603H99.3302L94.6242 626.057H93.1682ZM87.1882 614.591V613.603H93.8702V614.591L91.1402 615.033H89.5802L87.1882 614.591ZM95.5342 614.591V613.603H100.292V614.591L98.3682 614.981H97.8742L95.5342 614.591ZM107.035 626.317C105.822 626.317 104.747 626.066 103.811 625.563C102.875 625.06 102.147 624.332 101.627 623.379C101.107 622.426 100.847 621.273 100.847 619.921C100.847 618.552 101.116 617.373 101.653 616.385C102.191 615.38 102.919 614.608 103.837 614.071C104.773 613.516 105.805 613.239 106.931 613.239C107.937 613.239 108.821 613.456 109.583 613.889C110.346 614.305 110.944 614.894 111.377 615.657C111.811 616.42 112.027 617.321 112.027 618.361C112.027 618.638 112.01 618.89 111.975 619.115C111.941 619.34 111.897 619.557 111.845 619.765H102.147V618.621H107.529C108.188 618.621 108.621 618.5 108.829 618.257C109.055 617.997 109.167 617.624 109.167 617.139C109.167 616.515 109.072 616.004 108.881 615.605C108.691 615.206 108.422 614.912 108.075 614.721C107.746 614.513 107.356 614.409 106.905 614.409C106.437 614.409 105.978 614.574 105.527 614.903C105.077 615.215 104.704 615.744 104.409 616.489C104.132 617.217 103.993 618.222 103.993 619.505C103.993 620.562 104.158 621.455 104.487 622.183C104.834 622.894 105.311 623.431 105.917 623.795C106.541 624.142 107.243 624.315 108.023 624.315C108.769 624.315 109.419 624.194 109.973 623.951C110.528 623.691 111.031 623.301 111.481 622.781L112.131 623.301C111.785 623.942 111.377 624.488 110.909 624.939C110.441 625.39 109.887 625.728 109.245 625.953C108.621 626.196 107.885 626.317 107.035 626.317ZM118.237 626.317C117.457 626.317 116.738 626.222 116.079 626.031C115.438 625.858 114.788 625.598 114.129 625.251V622.209H115.663L116.391 625.511H115.221V624.185C115.706 624.497 116.183 624.74 116.651 624.913C117.136 625.069 117.674 625.147 118.263 625.147C118.835 625.147 119.312 625.078 119.693 624.939C120.092 624.783 120.386 624.566 120.577 624.289C120.768 624.012 120.863 623.682 120.863 623.301C120.863 622.798 120.672 622.391 120.291 622.079C119.927 621.75 119.346 621.446 118.549 621.169L117.327 620.779C116.72 620.554 116.174 620.276 115.689 619.947C115.221 619.618 114.857 619.228 114.597 618.777C114.337 618.309 114.207 617.754 114.207 617.113C114.207 616.402 114.389 615.761 114.753 615.189C115.134 614.6 115.68 614.132 116.391 613.785C117.119 613.421 118.003 613.239 119.043 613.239C119.771 613.239 120.43 613.326 121.019 613.499C121.626 613.672 122.232 613.932 122.839 614.279L122.683 617.061H121.175L120.499 614.149H121.643V615.345C121.21 615.033 120.785 614.808 120.369 614.669C119.97 614.513 119.511 614.435 118.991 614.435C118.298 614.435 117.752 614.582 117.353 614.877C116.972 615.172 116.781 615.579 116.781 616.099C116.781 616.602 116.954 617 117.301 617.295C117.648 617.59 118.246 617.884 119.095 618.179L120.057 618.491C120.854 618.768 121.504 619.089 122.007 619.453C122.527 619.817 122.908 620.242 123.151 620.727C123.394 621.195 123.515 621.741 123.515 622.365C123.515 623.128 123.307 623.812 122.891 624.419C122.492 625.008 121.894 625.476 121.097 625.823C120.317 626.152 119.364 626.317 118.237 626.317ZM128.053 615.033V613.603H132.681V615.033H128.053ZM129.769 626.317C128.764 626.317 127.967 626.057 127.377 625.537C126.788 625.017 126.493 624.202 126.493 623.093C126.493 622.694 126.493 622.313 126.493 621.949C126.511 621.585 126.519 621.143 126.519 620.623L126.545 615.033H124.621V613.837L127.689 613.421L126.493 614.305L127.793 609.963H129.665L129.561 614.071V614.539V622.833C129.561 623.474 129.683 623.942 129.925 624.237C130.185 624.532 130.523 624.679 130.939 624.679C131.234 624.679 131.503 624.618 131.745 624.497C131.988 624.376 132.257 624.211 132.551 624.003L133.123 624.601C132.915 624.965 132.647 625.277 132.317 625.537C131.988 625.797 131.615 625.988 131.199 626.109C130.783 626.248 130.307 626.317 129.769 626.317Z" fill="white"></path><path d="M94.6638 181V179.882L98.1218 179.518H98.8498L102.334 179.882V181H94.6638ZM96.7958 181C96.8304 180.151 96.8478 179.284 96.8478 178.4C96.8651 177.499 96.8738 176.589 96.8738 175.67C96.8738 174.751 96.8738 173.833 96.8738 172.914V171.796C96.8738 170.895 96.8738 169.993 96.8738 169.092C96.8738 168.173 96.8651 167.263 96.8478 166.362C96.8478 165.461 96.8304 164.585 96.7958 163.736H100.202C100.184 164.568 100.167 165.435 100.15 166.336C100.132 167.237 100.124 168.147 100.124 169.066C100.124 169.967 100.124 170.877 100.124 171.796V172.914C100.124 173.815 100.124 174.725 100.124 175.644C100.124 176.545 100.132 177.447 100.15 178.348C100.167 179.249 100.184 180.133 100.202 181H96.7958ZM94.6638 164.854V163.736H102.334V164.854L98.8498 165.218H98.1218L94.6638 164.854Z" fill="white"></path><path d="M57.3207 216V214.882L59.8687 214.518H60.3627L62.9627 214.882V216H57.3207ZM58.9327 216L64.8087 198.632H66.8107L72.6867 216H69.3327L64.5747 201.31H65.0687L64.9387 201.674L60.2067 216H58.9327ZM61.6107 210.592V209.318H69.0467V210.592H61.6107ZM66.6287 216V214.908L69.6967 214.518H70.8927L74.0127 214.908V216H66.6287ZM79.9309 216.364C78.9256 216.364 78.0329 216.113 77.2529 215.61C76.4903 215.09 75.8836 214.353 75.4329 213.4C74.9996 212.447 74.7829 211.303 74.7829 209.968C74.7829 208.599 75.0343 207.42 75.5369 206.432C76.0396 205.427 76.7069 204.655 77.5389 204.118C78.3709 203.563 79.2896 203.286 80.2949 203.286C80.8149 203.286 81.2916 203.364 81.7249 203.52C82.1583 203.659 82.5656 203.893 82.9469 204.222C83.3283 204.551 83.7009 204.985 84.0649 205.522H84.5589L84.2989 206.874C83.6749 206.198 83.1289 205.721 82.6609 205.444C82.1929 205.167 81.6903 205.028 81.1529 205.028C80.5809 205.028 80.0523 205.201 79.5669 205.548C79.0816 205.895 78.6916 206.432 78.3969 207.16C78.1196 207.871 77.9809 208.781 77.9809 209.89C77.9809 210.947 78.1109 211.831 78.3709 212.542C78.6483 213.235 79.0209 213.755 79.4889 214.102C79.9743 214.431 80.5289 214.596 81.1529 214.596C81.7769 214.596 82.3316 214.414 82.8169 214.05C83.3023 213.686 83.7963 213.157 84.2989 212.464L84.5329 213.842H84.0649C83.7356 214.379 83.3629 214.839 82.9469 215.22C82.5483 215.601 82.0976 215.887 81.5949 216.078C81.0923 216.269 80.5376 216.364 79.9309 216.364ZM83.7269 216.286L83.4669 213.816V213.738V205.756L83.5709 205.444V199.282L81.5949 198.996V198.06L86.2229 196.916L86.5869 197.15L86.4829 201.05V214.752L88.1729 215.012V216L83.7269 216.286ZM94.3733 216.104L89.1993 203.65H92.6053L96.2193 213.296H95.6993L95.8293 212.958L99.0533 203.65H100.535L95.8293 216.104H94.3733ZM88.3933 204.638V203.65H95.0753V204.638L92.3453 205.08H90.7853L88.3933 204.638ZM96.7393 204.638V203.65H101.497V204.638L99.5733 205.028H99.0793L96.7393 204.638ZM102.506 216V215.012L105.106 214.518H106.328L108.85 215.012V216H102.506ZM104.144 216C104.161 215.601 104.17 215.081 104.17 214.44C104.187 213.781 104.196 213.105 104.196 212.412C104.213 211.701 104.222 211.077 104.222 210.54V209.344C104.222 208.616 104.213 208.009 104.196 207.524C104.196 207.039 104.178 206.536 104.144 206.016L102.324 205.756V204.872L106.952 203.286L107.342 203.546L107.264 207.16V210.54C107.264 211.077 107.264 211.701 107.264 212.412C107.281 213.105 107.29 213.781 107.29 214.44C107.307 215.081 107.324 215.601 107.342 216H104.144ZM105.626 200.998C105.106 200.998 104.655 200.833 104.274 200.504C103.91 200.157 103.728 199.715 103.728 199.178C103.728 198.658 103.91 198.233 104.274 197.904C104.655 197.557 105.106 197.384 105.626 197.384C106.163 197.384 106.614 197.557 106.978 197.904C107.342 198.233 107.524 198.658 107.524 199.178C107.524 199.715 107.342 200.157 106.978 200.504C106.614 200.833 106.163 200.998 105.626 200.998ZM114.72 216.364C113.94 216.364 113.22 216.269 112.562 216.078C111.92 215.905 111.27 215.645 110.612 215.298V212.256H112.146L112.874 215.558H111.704V214.232C112.189 214.544 112.666 214.787 113.134 214.96C113.619 215.116 114.156 215.194 114.746 215.194C115.318 215.194 115.794 215.125 116.176 214.986C116.574 214.83 116.869 214.613 117.06 214.336C117.25 214.059 117.346 213.729 117.346 213.348C117.346 212.845 117.155 212.438 116.774 212.126C116.41 211.797 115.829 211.493 115.032 211.216L113.81 210.826C113.203 210.601 112.657 210.323 112.172 209.994C111.704 209.665 111.34 209.275 111.08 208.824C110.82 208.356 110.69 207.801 110.69 207.16C110.69 206.449 110.872 205.808 111.236 205.236C111.617 204.647 112.163 204.179 112.874 203.832C113.602 203.468 114.486 203.286 115.526 203.286C116.254 203.286 116.912 203.373 117.502 203.546C118.108 203.719 118.715 203.979 119.322 204.326L119.166 207.108H117.658L116.982 204.196H118.126V205.392C117.692 205.08 117.268 204.855 116.852 204.716C116.453 204.56 115.994 204.482 115.474 204.482C114.78 204.482 114.234 204.629 113.836 204.924C113.454 205.219 113.264 205.626 113.264 206.146C113.264 206.649 113.437 207.047 113.784 207.342C114.13 207.637 114.728 207.931 115.578 208.226L116.54 208.538C117.337 208.815 117.987 209.136 118.49 209.5C119.01 209.864 119.391 210.289 119.634 210.774C119.876 211.242 119.998 211.788 119.998 212.412C119.998 213.175 119.79 213.859 119.374 214.466C118.975 215.055 118.377 215.523 117.58 215.87C116.8 216.199 115.846 216.364 114.72 216.364ZM128.02 216.364C126.806 216.364 125.732 216.113 124.796 215.61C123.86 215.107 123.132 214.379 122.612 213.426C122.092 212.473 121.832 211.32 121.832 209.968C121.832 208.599 122.1 207.42 122.638 206.432C123.175 205.427 123.903 204.655 124.822 204.118C125.758 203.563 126.789 203.286 127.916 203.286C128.921 203.286 129.805 203.503 130.568 203.936C131.33 204.352 131.928 204.941 132.362 205.704C132.795 206.467 133.012 207.368 133.012 208.408C133.012 208.685 132.994 208.937 132.96 209.162C132.925 209.387 132.882 209.604 132.83 209.812H123.132V208.668H128.514C129.172 208.668 129.606 208.547 129.814 208.304C130.039 208.044 130.152 207.671 130.152 207.186C130.152 206.562 130.056 206.051 129.866 205.652C129.675 205.253 129.406 204.959 129.06 204.768C128.73 204.56 128.34 204.456 127.89 204.456C127.422 204.456 126.962 204.621 126.512 204.95C126.061 205.262 125.688 205.791 125.394 206.536C125.116 207.264 124.978 208.269 124.978 209.552C124.978 210.609 125.142 211.502 125.472 212.23C125.818 212.941 126.295 213.478 126.902 213.842C127.526 214.189 128.228 214.362 129.008 214.362C129.753 214.362 130.403 214.241 130.958 213.998C131.512 213.738 132.015 213.348 132.466 212.828L133.116 213.348C132.769 213.989 132.362 214.535 131.894 214.986C131.426 215.437 130.871 215.775 130.23 216C129.606 216.243 128.869 216.364 128.02 216.364Z" fill="white"></path><path d="M99 1149.91L101.887 1144.91H96.1132L99 1149.91ZM98.5 0L98.5 146.765H99.5L99.5 0L98.5 0ZM98.5 248.138L98.5 546.963H99.5L99.5 248.138H98.5ZM98.5 649.849L98.5 922.952H99.5L99.5 649.849H98.5ZM98.5 1012.22L98.5 1145.41H99.5L99.5 1012.22H98.5Z" fill="white"></path></svg>